<svg aria-hidden="true" style="position: absolute; width: 0; height: 0; overflow: hidden;" version="1.1" xmlns="http://www.w3.org/2000/svg" xmlns:xlink="http://www.w3.org/1999/xlink">
<defs>
<symbol id="icon-corn-icon" viewBox="0 0 32 32">
<path d="M29.772 1.406c-1.875-1.874-4.913-1.874-6.788 0l-15.684 15.684c-1.591 1.596-1.86 4.082-0.647 5.981l-6.18 6.18c-0.461 0.46-0.599 1.153-0.35 1.756s0.837 0.994 1.489 0.993c0.427 0.001 0.837-0.168 1.139-0.47l6.18-6.18c1.898 1.217 4.388 0.948 5.982-0.647l15.684-15.684c1.872-1.876 1.872-4.913 0-6.789l-0.825-0.824zM1.997 30.773c-0.216 0.204-0.554 0.204-0.77 0-0.211-0.213-0.211-0.557 0-0.77l6.099-6.098 0.77 0.77-6.1 6.098zM29.842 8.266l-15.684 15.681c-0.7 0.7-1.65 1.094-2.64 1.094s-1.94-0.393-2.64-1.094l-0.822-0.822c-1.456-1.459-1.456-3.821 0-5.28l15.681-15.684c1.459-1.456 3.821-1.456 5.28 0l0.826 0.826c1.456 1.459 1.456 3.821 0 5.28z"></path>
<path d="M26.379 2.173c-0.713-0.003-1.398 0.281-1.901 0.787l-2.667 2.667c-0.144 0.132-0.204 0.333-0.157 0.523s0.196 0.338 0.386 0.387 0.391-0.011 0.524-0.155l2.667-2.667c0.642-0.611 1.651-0.611 2.293 0 0.209 0.202 0.542 0.199 0.748-0.006s0.209-0.538 0.007-0.748c-0.503-0.505-1.187-0.789-1.899-0.787z"></path>
<path d="M19.521 9.205c0.142-0 0.277-0.056 0.377-0.156l1.143-1.143c0.139-0.134 0.194-0.332 0.145-0.519s-0.195-0.332-0.381-0.381c-0.187-0.049-0.385 0.007-0.519 0.145l-1.143 1.143c-0.153 0.153-0.198 0.382-0.116 0.581s0.277 0.329 0.493 0.329z"></path>
<path d="M17.996 10.958c0.154-0.154 0.2-0.386 0.117-0.587s-0.28-0.333-0.498-0.333c-0.218 0-0.414 0.131-0.498 0.333s-0.037 0.433 0.117 0.587c0.21 0.21 0.551 0.21 0.762 0z"></path>
<path d="M21.429 13.629l-7.62 7.62c-0.139 0.134-0.194 0.332-0.145 0.519s0.194 0.332 0.381 0.381c0.186 0.049 0.385-0.007 0.519-0.145l7.62-7.62c0.202-0.209 0.199-0.542-0.007-0.748s-0.538-0.209-0.748-0.007z"></path>
</symbol>
<symbol id="icon-discount-icon" viewBox="0 0 32 32">
<path d="M29.872 16.414c-0.129-0.263-0.129-0.566 0-0.829l1.193-2.441c0.665-1.359 0.138-2.98-1.199-3.689l-2.401-1.274c-0.259-0.137-0.437-0.382-0.487-0.671l-0.469-2.677c-0.261-1.49-1.64-2.492-3.138-2.28l-2.691 0.381c-0.29 0.041-0.578-0.052-0.788-0.256l-1.953-1.889c-1.087-1.052-2.791-1.052-3.879 0l-1.953 1.89c-0.211 0.204-0.498 0.297-0.788 0.256l-2.691-0.381c-1.498-0.212-2.877 0.79-3.138 2.28l-0.47 2.677c-0.051 0.289-0.228 0.533-0.487 0.671l-2.401 1.274c-1.337 0.709-1.863 2.33-1.199 3.689l1.193 2.441c0.129 0.264 0.129 0.566 0 0.829l-1.194 2.441c-0.664 1.359-0.138 2.98 1.199 3.689l2.401 1.274c0.259 0.137 0.437 0.382 0.487 0.671l0.47 2.677c0.238 1.357 1.401 2.308 2.738 2.308 0.132 0 0.265-0.009 0.4-0.028l2.691-0.381c0.29-0.041 0.578 0.052 0.788 0.256l1.953 1.889c0.544 0.526 1.241 0.789 1.939 0.789s1.396-0.263 1.939-0.789l1.953-1.889c0.211-0.204 0.498-0.297 0.788-0.256l2.691 0.381c1.498 0.212 2.877-0.79 3.138-2.28l0.47-2.677c0.051-0.289 0.228-0.533 0.487-0.671l2.401-1.274c1.337-0.709 1.863-2.33 1.199-3.689l-1.193-2.441zM29.002 20.915l-2.401 1.274c-0.765 0.406-1.29 1.129-1.44 1.982l-0.47 2.677c-0.088 0.504-0.555 0.843-1.062 0.771l-2.691-0.381c-0.858-0.122-1.707 0.155-2.33 0.757l-1.953 1.889c-0.368 0.356-0.944 0.356-1.312 0l-1.953-1.889c-0.526-0.509-1.214-0.785-1.933-0.785-0.132 0-0.264 0.009-0.397 0.028l-2.691 0.381c-0.507 0.072-0.973-0.267-1.062-0.771l-0.47-2.677c-0.15-0.854-0.675-1.576-1.44-1.982l-2.401-1.274c-0.452-0.24-0.63-0.788-0.406-1.248l1.194-2.442c0.38-0.778 0.38-1.671 0-2.45l-1.194-2.441c-0.225-0.46-0.047-1.008 0.406-1.248l2.401-1.274c0.765-0.406 1.29-1.129 1.44-1.982l0.47-2.677c0.088-0.504 0.555-0.843 1.062-0.771l2.691 0.381c0.858 0.121 1.707-0.155 2.33-0.757l1.953-1.889c0.368-0.356 0.944-0.356 1.312 0l1.953 1.889c0.623 0.603 1.472 0.878 2.33 0.757l2.691-0.381c0.507-0.072 0.973 0.267 1.062 0.771l0.47 2.677c0.15 0.854 0.674 1.576 1.44 1.982l2.401 1.274c0.452 0.24 0.63 0.788 0.406 1.248l-1.194 2.441c-0.381 0.778-0.381 1.671 0 2.45l1.194 2.441c0.225 0.46 0.047 1.008-0.406 1.248z"></path>
<path d="M22.743 9.257c-0.36-0.36-0.945-0.36-1.305 0l-12.18 12.181c-0.36 0.36-0.36 0.945 0 1.305 0.18 0.18 0.416 0.27 0.652 0.27s0.472-0.090 0.652-0.27l12.18-12.181c0.361-0.36 0.361-0.945 0-1.305z"></path>
<path d="M12.309 7.695c-1.866 0-3.384 1.518-3.384 3.384s1.518 3.384 3.384 3.384c1.866 0 3.384-1.518 3.384-3.384s-1.518-3.384-3.384-3.384zM12.309 12.616c-0.848 0-1.538-0.69-1.538-1.538s0.69-1.538 1.538-1.538c0.848 0 1.538 0.69 1.538 1.538s-0.69 1.538-1.538 1.538z"></path>
<path d="M19.691 17.538c-1.866 0-3.384 1.518-3.384 3.384s1.518 3.384 3.384 3.384 3.384-1.518 3.384-3.384c0-1.866-1.518-3.384-3.384-3.384zM19.691 22.46c-0.848 0-1.538-0.69-1.538-1.538s0.69-1.538 1.538-1.538c0.848 0 1.538 0.69 1.538 1.538s-0.69 1.538-1.538 1.538z"></path>
</symbol>
<symbol id="icon-drink-icon" viewBox="0 0 32 32">
<path d="M24.168 12h-0.379c-0.168-4.042-3.411-7.284-7.411-7.495v-4.084c0-0.253-0.168-0.421-0.421-0.421s-0.421 0.168-0.421 0.421v4.084c-4.042 0.211-7.242 3.453-7.41 7.495h-0.295c-0.253 0-0.421 0.168-0.421 0.421v2.147c0 0.253 0.168 0.421 0.421 0.421h0.295l1.558 16.632c0 0.211 0.211 0.379 0.421 0.379h11.579c0.211 0 0.379-0.168 0.421-0.379l1.558-16.632h0.505c0.253 0 0.421-0.168 0.421-0.421v-2.147c0-0.253-0.211-0.421-0.421-0.421zM16.379 5.347c3.537 0.211 6.4 3.074 6.568 6.653h-6.568v-6.653zM15.537 5.347v6.653h-6.568c0.168-3.579 2.989-6.442 6.568-6.653zM8.253 12.842h7.284v1.305h-7.284v-1.305zM8.968 14.989h6.568v2.737h-6.316l-0.253-2.737zM21.305 31.158h-10.821l-1.179-12.632h6.232v7.284c0 0.253 0.168 0.421 0.421 0.421s0.421-0.168 0.421-0.421v-7.284h6.105l-1.179 12.632zM22.568 17.684h-6.189v-2.695h6.442l-0.253 2.695zM23.747 14.147h-7.368v-1.305h7.368v1.305z"></path>
<path d="M12.589 19.79c-1.010 0-1.853 0.842-1.853 1.853s0.842 1.853 1.853 1.853c1.011 0 1.853-0.842 1.853-1.853s-0.842-1.853-1.853-1.853zM12.589 22.653c-0.547 0-1.010-0.463-1.010-1.011s0.463-1.010 1.010-1.010 1.011 0.463 1.011 1.010c0 0.547-0.463 1.011-1.011 1.011z"></path>
<path d="M18.947 25.979c-1.011 0-1.853 0.842-1.853 1.853s0.8 1.853 1.853 1.853c1.011 0 1.853-0.842 1.853-1.853s-0.842-1.853-1.853-1.853zM18.947 28.842c-0.547 0-1.011-0.463-1.011-1.011s0.421-1.011 1.011-1.011c0.547 0 1.011 0.463 1.011 1.011s-0.463 1.011-1.011 1.011z"></path>
<path d="M19.2 20.379c-0.842 0-1.558 0.716-1.558 1.558s0.716 1.558 1.558 1.558c0.842 0 1.558-0.716 1.558-1.558s-0.716-1.558-1.558-1.558zM19.2 22.653c-0.379 0-0.716-0.337-0.716-0.716s0.337-0.716 0.716-0.716c0.379 0 0.716 0.337 0.716 0.716s-0.295 0.716-0.716 0.716z"></path>
<path d="M13.558 26.274c-0.842 0-1.558 0.716-1.558 1.558s0.716 1.558 1.558 1.558c0.842 0 1.558-0.716 1.558-1.558s-0.716-1.558-1.558-1.558zM13.558 28.547c-0.379 0-0.716-0.337-0.716-0.716s0.337-0.716 0.716-0.716c0.379 0 0.716 0.337 0.716 0.716 0 0.421-0.337 0.716-0.716 0.716z"></path>
</symbol>
<symbol id="icon-pizza_icon" viewBox="0 0 32 32">
<path d="M31.049 12.349c-0.083-0.124-0.166-0.249-0.29-0.29 0.124-0.166 0.207-0.415 0.166-0.622-0.041-0.913-0.456-2.78-2.489-5.103-2.075-2.324-3.9-2.946-4.772-3.112-0.166-0.042-0.29 0-0.415 0-0.041-0.207-0.166-0.415-0.332-0.539-0.705-0.581-2.365-1.494-5.477-1.494s-4.772 0.954-5.518 1.494c-0.373 0.29-0.498 0.747-0.29 1.162l0.664 1.535 4.149 10.041c0 0.041 0.041 0.083 0.083 0.124-0.083-0.041-0.207-0.041-0.332-0.041l-10.912 0.954-1.66 0.124c-0.456 0.041-0.83 0.373-0.913 0.83-0.166 0.913-0.207 2.821 1.286 5.518 1.452 2.738 3.112 3.734 3.942 4.108 0.124 0.041 0.249 0.083 0.415 0.083 0 0 0 0 0.041 0 0 0.207 0.083 0.415 0.207 0.622 0.581 0.705 1.95 2.033 4.979 2.738 1.079 0.249 1.992 0.332 2.78 0.332 1.411 0 2.365-0.29 2.904-0.539 0.124-0.041 0.249-0.166 0.332-0.249 0.166 0.124 0.373 0.249 0.581 0.249 0.083 0 0.166 0 0.249 0 0.996 0 2.78-0.29 5.062-1.909 2.531-1.784 3.361-3.527 3.651-4.398 0.041-0.124 0.041-0.29 0.041-0.415 0.207-0.041 0.415-0.124 0.581-0.29 0.664-0.664 1.784-2.199 2.116-5.269 0.415-3.070-0.332-4.854-0.83-5.643zM23.29 4.133c0.041-0.083 0.124-0.124 0.166-0.083 0.788 0.166 2.448 0.705 4.315 2.821s2.241 3.776 2.282 4.606c0 0.083-0.041 0.124-0.124 0.166l-0.664 0.249c-0.083-0.83-0.498-2.406-2.199-4.357s-3.278-2.531-4.108-2.697l0.332-0.705zM29.307 17.701c-0.29 2.531-1.245 3.734-1.66 4.149-0.041 0.041-0.083 0.041-0.124 0l-4.854-2.821-4.274-2.697 4.854-1.618 5.269-1.494c0.041 0 0.083 0 0.124 0.041 0.332 0.498 0.954 1.909 0.664 4.44zM22.709 5.627c0.539 0.083 2.033 0.539 3.776 2.489 1.701 1.909 1.95 3.444 1.992 3.983 0 0.041-0.041 0.083-0.083 0.083l-5.352 1.743-4.855 1.369 2.033-4.689 2.407-4.937c0-0.042 0.041-0.042 0.083-0.042zM12.337 3.553c-0.041-0.083 0-0.166 0.041-0.207 0.664-0.498 2.158-1.328 4.979-1.328s4.315 0.83 4.938 1.328c0.041 0.042 0.083 0.124 0.041 0.207l-0.29 0.664c-0.705-0.498-2.116-1.245-4.689-1.245s-4.066 0.747-4.73 1.245l-0.29-0.664zM13.001 5.088c0-0.042 0-0.083 0.041-0.124 0.456-0.332 1.784-1.162 4.357-1.162 2.489 0 3.776 0.705 4.315 1.162 0.041 0.041 0.041 0.083 0.041 0.124l-2.241 5.186-2.324 4.813-4.191-9.999zM17.274 16.042c0 0.041 0 0.041 0 0.083 0 0-0.041 0-0.083 0.041-0.041 0-0.041 0-0.083-0.041 0-0.041 0-0.083-0.041-0.124l-0.041-0.041c0.041 0 0.124 0.041 0.166 0.041 0.041 0.041 0.041 0.041 0.083 0.041zM16.776 17.286l1.037 5.020 0.871 5.394c0 0.041 0 0.083-0.041 0.124-0.498 0.249-1.992 0.705-4.481 0.124s-3.568-1.66-3.942-2.116c-0.041-0.041-0.041-0.083 0-0.124l3.361-4.523 3.195-3.9zM8.478 26.248c-0.041 0.041-0.124 0.083-0.207 0.041-0.581-0.249-2.158-1.162-3.568-3.776-1.328-2.489-1.328-4.191-1.162-4.979 0-0.083 0.083-0.124 0.166-0.124l0.747-0.041c-0.124 0.83-0.083 2.489 1.12 4.73 1.245 2.282 2.572 3.195 3.361 3.568l-0.456 0.581zM6.279 21.726c-1.203-2.241-1.12-3.776-1.037-4.357 0-0.041 0.042-0.083 0.083-0.083l10.871-0.913c-0.041 0.041-0.083 0.041-0.083 0.083l-3.153 4.232-3.444 4.274c-0.041 0.041-0.083 0.041-0.124 0.041-0.539-0.249-1.867-1.037-3.112-3.278zM18.892 29.526c-0.581 0.29-2.282 0.83-5.186 0.166-2.78-0.664-4.025-1.826-4.523-2.448-0.041-0.041-0.041-0.124 0-0.207l0.456-0.581c0.539 0.664 1.784 1.701 4.274 2.282 0.954 0.207 1.743 0.29 2.448 0.29 1.162 0 1.95-0.249 2.448-0.456l0.124 0.747c0.083 0.124 0.041 0.207-0.041 0.207zM19.764 27.659l-1.12-5.518-0.83-4.979 4.44 2.572 4.606 2.946c0.041 0.041 0.041 0.083 0.041 0.124-0.166 0.539-0.788 1.95-2.904 3.444-2.116 1.452-3.61 1.577-4.191 1.535 0-0.041-0.041-0.041-0.041-0.124zM25.033 27.701c-2.324 1.618-4.025 1.784-4.813 1.743-0.083 0-0.124-0.041-0.166-0.124l-0.124-0.747c0.041 0 0.041 0 0.083 0 0.871 0 2.448-0.249 4.481-1.66 2.116-1.494 2.904-2.946 3.153-3.734l0.622 0.373c0.083 0.041 0.083 0.124 0.083 0.207-0.166 0.622-0.871 2.241-3.319 3.942zM31.091 17.909c-0.332 2.821-1.328 4.191-1.909 4.772-0.041 0.041-0.124 0.083-0.207 0.041l-0.622-0.373c0.581-0.622 1.494-1.992 1.784-4.523 0.29-2.572-0.29-4.108-0.705-4.854l0.705-0.207c0.083-0.041 0.166 0 0.207 0.083 0.415 0.664 1.079 2.241 0.747 5.062z"></path>
<path d="M19.141 4.673c-0.83 0-1.494 0.664-1.494 1.494s0.664 1.494 1.494 1.494c0.83 0 1.494-0.664 1.494-1.494s-0.664-1.494-1.494-1.494zM19.141 6.872c-0.373 0-0.664-0.29-0.664-0.664s0.29-0.664 0.664-0.664c0.373 0 0.664 0.29 0.664 0.664s-0.29 0.664-0.664 0.664z"></path>
<path d="M17.191 8.117c-0.788 0-1.411 0.622-1.411 1.411s0.622 1.411 1.411 1.411c0.788 0 1.411-0.622 1.411-1.411s-0.622-1.411-1.411-1.411zM17.15 10.108c-0.332 0-0.581-0.249-0.581-0.581s0.249-0.581 0.581-0.581c0.332 0 0.581 0.249 0.581 0.581s-0.249 0.581-0.581 0.581z"></path>
<path d="M24.577 8.075c-0.456-0.498-1.245-0.539-1.743-0.083-0.249 0.207-0.373 0.539-0.415 0.83 0 0.332 0.083 0.664 0.29 0.871 0.207 0.29 0.539 0.456 0.871 0.456 0.041 0 0.041 0 0.083 0 0.29 0 0.581-0.124 0.83-0.332 0.498-0.456 0.539-1.245 0.083-1.743zM23.871 9.278c-0.083 0.083-0.166 0.124-0.29 0.083-0.124 0-0.207-0.041-0.29-0.124s-0.124-0.166-0.083-0.29c0.041-0.124 0.083-0.249 0.166-0.29 0.083-0.083 0.166-0.083 0.249-0.083 0.124 0 0.207 0.041 0.29 0.124 0.166 0.166 0.124 0.415-0.041 0.581z"></path>
<path d="M27.937 18.241c-0.29-0.29-0.622-0.498-0.996-0.539-0.788-0.083-1.535 0.498-1.618 1.286s0.498 1.535 1.286 1.618c0.041 0 0.124 0 0.166 0 0.747 0 1.369-0.539 1.452-1.286 0.041-0.373-0.083-0.788-0.29-1.079zM26.693 19.817c-0.373-0.041-0.622-0.373-0.581-0.705 0.041-0.373 0.373-0.622 0.705-0.581 0.166 0 0.332 0.124 0.415 0.249s0.166 0.29 0.166 0.456c-0.041 0.373-0.373 0.622-0.705 0.581z"></path>
<path d="M28.311 14.506c-0.166-0.249-0.456-0.415-0.788-0.456s-0.664 0.041-0.913 0.249-0.415 0.498-0.456 0.83c-0.041 0.332 0.041 0.664 0.249 0.913s0.498 0.415 0.83 0.456c0.041 0 0.083 0 0.124 0 0.29 0 0.539-0.083 0.747-0.249 0.249-0.207 0.415-0.498 0.456-0.83s-0.041-0.664-0.249-0.913zM27.605 15.585c-0.083 0.083-0.207 0.083-0.29 0.083-0.124 0-0.207-0.083-0.249-0.166-0.083-0.083-0.083-0.207-0.083-0.29 0-0.124 0.083-0.207 0.166-0.249 0.083-0.083 0.207-0.083 0.29-0.083 0.124 0 0.207 0.083 0.249 0.166s0.083 0.207 0.083 0.29c0 0.083-0.083 0.207-0.166 0.249z"></path>
<path d="M22.087 20.606c-0.249-0.332-0.539-0.539-0.913-0.581-0.373-0.083-0.747 0-1.079 0.249-0.622 0.456-0.788 1.328-0.332 1.992 0.249 0.373 0.705 0.581 1.162 0.581 0.29 0 0.581-0.083 0.83-0.249 0.332-0.207 0.539-0.539 0.581-0.913 0.083-0.373 0-0.747-0.249-1.079zM21.506 21.56c-0.041 0.166-0.124 0.29-0.249 0.373-0.249 0.207-0.622 0.124-0.83-0.166-0.166-0.249-0.124-0.622 0.166-0.83 0.249-0.166 0.622-0.124 0.83 0.166 0.083 0.124 0.124 0.29 0.083 0.456z"></path>
<path d="M16.195 24.257c-0.332-0.083-0.664-0.041-0.913 0.166-0.29 0.166-0.456 0.456-0.539 0.747-0.207 0.664 0.207 1.328 0.871 1.494 0.083 0.041 0.207 0.041 0.29 0.041 0.539 0 1.079-0.373 1.203-0.954 0.166-0.664-0.249-1.328-0.913-1.494zM16.237 25.585c-0.041 0.207-0.249 0.332-0.498 0.29-0.124-0.041-0.207-0.083-0.249-0.166s0-0.207 0-0.332c0.041-0.124 0.083-0.207 0.166-0.249s0.124-0.041 0.207-0.041c0.041 0 0.083 0 0.083 0 0.207 0.041 0.332 0.249 0.29 0.498z"></path>
<path  d="M8.851 18.324c-0.373-0.705-1.286-0.996-1.992-0.581-0.705 0.373-0.996 1.286-0.581 1.992 0.249 0.498 0.788 0.788 1.286 0.788 0.249 0 0.456-0.041 0.705-0.166 0.705-0.415 0.954-1.328 0.581-2.033zM7.856 19.61c-0.332 0.166-0.705 0.041-0.871-0.249-0.166-0.332-0.042-0.705 0.249-0.871 0.332-0.166 0.705-0.041 0.871 0.249s0.041 0.705-0.249 0.871z"></path>
<path  d="M12.669 18.49c-0.166-0.332-0.498-0.581-0.83-0.705-0.373-0.124-0.747-0.083-1.079 0.124-0.332 0.166-0.581 0.498-0.705 0.83-0.124 0.373-0.083 0.747 0.124 1.079 0.166 0.373 0.456 0.622 0.83 0.705 0.124 0.041 0.29 0.041 0.415 0.041 0.249 0 0.456-0.041 0.664-0.166 0.332-0.166 0.581-0.498 0.705-0.83 0.124-0.373 0.083-0.747-0.124-1.079zM11.673 19.693c-0.124 0.083-0.29 0.083-0.456 0.041s-0.29-0.166-0.332-0.29-0.083-0.29-0.041-0.456c0.041-0.166 0.166-0.29 0.29-0.332 0.124-0.083 0.29-0.083 0.456-0.041s0.29 0.166 0.332 0.29c0.166 0.29 0.041 0.664-0.249 0.788z"></path>
<path d="M14.204 12.681l-6.68-8.63-1.037-1.328c-0.29-0.373-0.747-0.498-1.162-0.29-0.83 0.373-2.448 1.369-3.942 4.066s-1.452 4.647-1.328 5.56c0.083 0.456 0.415 0.788 0.871 0.83l1.66 0.124 10.788 1.162c0.083 0 0.124 0 0.124 0 0.332 0 0.622-0.166 0.788-0.456 0.166-0.332 0.166-0.705-0.083-1.037zM1.756 12.141l-0.705-0.083c-0.083 0-0.124-0.083-0.166-0.124-0.124-0.788-0.124-2.531 1.203-5.020 1.369-2.49 2.821-3.402 3.527-3.693 0.083-0.042 0.166 0 0.207 0.042l0.456 0.581c-0.788 0.373-2.116 1.286-3.361 3.527-1.245 2.282-1.286 3.9-1.162 4.771zM13.623 13.303c-0.041 0.041-0.041 0.041-0.083 0.041l-10.788-1.162c-0.083 0-0.124-0.041-0.124-0.083-0.083-0.581-0.166-2.116 1.079-4.357s2.572-2.987 3.070-3.236c0.042 0 0.083 0 0.124 0.042l6.722 8.63c0.041 0.041 0.041 0.083 0 0.124z"></path>
<path d="M8.022 6.913c-0.124-0.373-0.373-0.705-0.705-0.871-0.332-0.207-0.747-0.249-1.12-0.124s-0.705 0.373-0.871 0.705c-0.207 0.332-0.249 0.747-0.124 1.12s0.373 0.705 0.705 0.913c0.207 0.124 0.456 0.166 0.705 0.166 0.539 0 1.037-0.29 1.286-0.788 0.207-0.332 0.249-0.747 0.124-1.12zM7.15 7.66c-0.166 0.332-0.581 0.415-0.871 0.249-0.166-0.083-0.249-0.207-0.29-0.373s0-0.332 0.083-0.498c0.083-0.166 0.207-0.249 0.373-0.29 0.041 0 0.124-0.042 0.166-0.042 0.124 0 0.207 0.042 0.29 0.083 0.166 0.083 0.249 0.207 0.29 0.373s0.042 0.332-0.042 0.498z"></path>
<path d="M8.685 9.859c-0.581-0.415-1.328-0.207-1.66 0.415-0.166 0.29-0.207 0.622-0.083 0.954 0.083 0.332 0.29 0.581 0.581 0.747 0.166 0.083 0.373 0.166 0.581 0.166 0.124 0 0.249 0 0.332-0.041 0.332-0.083 0.581-0.29 0.747-0.581 0.332-0.581 0.124-1.328-0.498-1.66zM8.478 11.021c-0.124 0.207-0.332 0.249-0.539 0.166-0.083-0.041-0.166-0.124-0.207-0.249s0-0.207 0.042-0.29c0.042-0.083 0.124-0.166 0.249-0.207 0 0.041 0.041 0 0.083 0 0.083 0 0.124 0 0.207 0.041 0.207 0.124 0.249 0.332 0.166 0.539z"></path>
<path d="M5.159 10.44l-0.498-1.037c-0.083-0.207-0.332-0.29-0.539-0.207s-0.29 0.332-0.207 0.539l0.498 1.037c0.083 0.166 0.207 0.249 0.373 0.249 0.042 0 0.124 0 0.166-0.041 0.207-0.083 0.29-0.332 0.207-0.539z"></path>
<path d="M16.112 7.079l-0.498-1.037c-0.083-0.207-0.332-0.29-0.539-0.207s-0.29 0.332-0.207 0.539l0.498 1.037c0.083 0.166 0.207 0.249 0.373 0.249 0.041 0 0.124 0 0.166-0.042 0.207-0.083 0.332-0.332 0.207-0.539z"></path>
<path d="M23.415 12.266l-0.498-1.037c-0.083-0.207-0.332-0.29-0.539-0.207s-0.29 0.332-0.207 0.539l0.498 1.037c0.083 0.166 0.207 0.249 0.373 0.249 0.041 0 0.124 0 0.166-0.041 0.207-0.083 0.29-0.332 0.207-0.539z"></path>
<path d="M13.457 25.792l-0.498-1.037c-0.083-0.207-0.332-0.29-0.539-0.207s-0.29 0.332-0.207 0.539l0.498 1.037c0.083 0.166 0.207 0.249 0.373 0.249 0.041 0 0.124 0 0.166-0.041 0.207-0.083 0.29-0.332 0.207-0.539z"></path>
<path d="M21.963 24.879l-1.162-0.207c-0.207-0.041-0.456 0.124-0.498 0.332s0.124 0.456 0.332 0.498l1.162 0.207c0.041 0 0.041 0 0.083 0 0.207 0 0.373-0.124 0.415-0.332 0.083-0.249-0.083-0.456-0.332-0.498z"></path>
<path d="M23.871 17.12l-1.162-0.207c-0.207-0.041-0.456 0.124-0.498 0.332s0.124 0.456 0.332 0.498l1.162 0.207c0.041 0 0.041 0 0.083 0 0.207 0 0.373-0.124 0.415-0.332s-0.124-0.456-0.332-0.498z"></path>
<path d="M26.734 10.648l-1.162-0.207c-0.207-0.041-0.456 0.124-0.498 0.332-0.041 0.249 0.124 0.456 0.332 0.498l1.162 0.207c0.041 0 0.041 0 0.083 0 0.207 0 0.373-0.124 0.415-0.332s-0.124-0.456-0.332-0.498z"></path>
<path d="M16.112 22.182l-0.498-1.037c-0.083-0.207-0.332-0.29-0.539-0.207s-0.29 0.332-0.207 0.539l0.498 1.037c0.083 0.166 0.207 0.249 0.373 0.249 0.041 0 0.124 0 0.166-0.041 0.207-0.083 0.29-0.332 0.207-0.539z"></path>
<path d="M9.681 21.643c-0.124-0.166-0.415-0.207-0.581-0.041l-0.913 0.747c-0.166 0.124-0.207 0.415-0.041 0.581 0.083 0.083 0.207 0.166 0.332 0.166 0.083 0 0.166-0.041 0.249-0.083l0.913-0.747c0.166-0.166 0.207-0.415 0.041-0.622z"></path>
<path d="M21.133 12.888c-0.124-0.166-0.415-0.207-0.581-0.041l-0.913 0.705c-0.166 0.166-0.207 0.415-0.041 0.581 0.083 0.083 0.207 0.166 0.332 0.166 0.083 0 0.166-0.041 0.249-0.083l0.913-0.747c0.166-0.124 0.207-0.415 0.041-0.581z"></path>
<path d="M24.826 22.888c-0.124-0.166-0.415-0.207-0.581-0.041l-0.913 0.747c-0.166 0.124-0.207 0.415-0.041 0.581 0.083 0.083 0.207 0.124 0.332 0.124 0.083 0 0.166-0.041 0.249-0.083l0.913-0.747c0.166-0.124 0.207-0.415 0.041-0.581z"></path>
</symbol>
<symbol id="icon-roll-icon" viewBox="0 0 32 32">
<path d="M16 9.837c1.392 0 2.832-0.247 3.845-0.719 0.083-0.012 0.163-0.049 0.227-0.113 0.697-0.374 1.141-0.87 1.141-1.481 0-1.502-2.686-2.313-5.213-2.313s-5.213 0.811-5.213 2.313 2.686 2.313 5.213 2.313zM15.399 9.009c-0.015-0.024-0.033-0.047-0.054-0.067l-2.447-2.447c0.344-0.125 0.751-0.233 1.214-0.315l2.81 2.81c-0.292 0.023-0.599 0.035-0.922 0.035-0.207-0-0.406-0.006-0.601-0.015zM20.4 7.525c0 0.213-0.193 0.453-0.554 0.679l-2.037-2.037c1.639 0.273 2.592 0.886 2.592 1.358zM16.529 6.036l2.533 2.533c-0.322 0.114-0.698 0.214-1.122 0.291-0.002-0.003-0.004-0.006-0.007-0.008l-2.796-2.796c0.275-0.020 0.562-0.031 0.863-0.031 0.181-0 0.358 0.004 0.529 0.011zM12.121 6.867l2.005 2.005c-1.598-0.278-2.526-0.881-2.526-1.347 0-0.206 0.182-0.438 0.521-0.658z"></path>
<path d="M8.191 16.608c2.527 0 5.213-0.81 5.213-2.312s-2.686-2.313-5.213-2.313c-2.527 0-5.213 0.81-5.213 2.313s2.686 2.312 5.213 2.312zM5.356 15.414l1.629-1.316 1.687 1.687c-0.157 0.006-0.317 0.009-0.481 0.009-1.147 0-2.107-0.155-2.835-0.381zM12.591 14.295c0 0.498-1.059 1.152-2.861 1.399l-0.72-0.72 2.076-1.78c0.965 0.31 1.505 0.745 1.505 1.101zM10.115 12.957l-1.681 1.441-1.533-1.533c0.398-0.045 0.829-0.070 1.29-0.070 0.718 0 1.363 0.061 1.924 0.162zM5.914 13.028l0.493 0.493-1.896 1.531 0.026 0.032c-0.484-0.256-0.746-0.542-0.746-0.789 0-0.426 0.773-0.965 2.124-1.267z"></path>
<path d="M24.191 10.001v-2.476c0-0.001-0-0.002-0-0.003-0.003-2.409-3.6-4.296-8.191-4.296-4.593 0-8.191 1.888-8.191 4.299 0 0 0 0 0 0v2.476c-4.409 0.101-7.809 1.951-7.809 4.294v10.18c0 2.41 3.598 4.299 8.191 4.299 3.709 0 6.768-1.231 7.809-2.974 1.041 1.743 4.1 2.974 7.809 2.974 4.593 0 8.191-1.888 8.191-4.299v-10.18c0-2.343-3.4-4.193-7.809-4.294zM31.187 14.295c0 1.89-3.379 3.486-7.379 3.486s-7.379-1.596-7.379-3.486c0-1.89 3.379-3.486 7.379-3.486s7.379 1.597 7.379 3.486zM22.691 10.035c0.26-0.193 0.491-0.398 0.688-0.613v0.581c-0.232 0.006-0.462 0.017-0.688 0.033zM16 12.971c-0.257-0.43-0.636-0.829-1.118-1.186 0.365 0.025 0.738 0.038 1.118 0.038s0.753-0.013 1.118-0.038c-0.482 0.357-0.861 0.756-1.118 1.186zM16 4.038c4 0 7.379 1.596 7.379 3.486s-3.379 3.486-7.379 3.486c-4 0-7.379-1.596-7.379-3.486s3.379-3.486 7.379-3.486zM9.309 10.035c-0.226-0.016-0.455-0.027-0.688-0.033v-0.58c0.197 0.216 0.428 0.42 0.688 0.613zM8.191 10.809c4 0 7.379 1.596 7.379 3.486s-3.379 3.486-7.379 3.486-7.379-1.596-7.379-3.486c0-1.89 3.379-3.486 7.379-3.486zM8.191 27.962c-4 0-7.379-1.596-7.379-3.486v-8.283c1.313 1.434 4.091 2.401 7.379 2.401s6.065-0.967 7.379-2.401v8.283c0 1.89-3.379 3.486-7.379 3.486zM31.187 24.475c0 1.89-3.379 3.486-7.379 3.486s-7.379-1.596-7.379-3.486v-8.283c1.314 1.434 4.091 2.401 7.379 2.401s6.065-0.967 7.379-2.401v8.283h0z"></path>
<path d="M18.596 14.295c0 1.502 2.686 2.312 5.213 2.312s5.213-0.81 5.213-2.312c0-1.502-2.686-2.313-5.213-2.313s-5.213 0.81-5.213 2.313zM28.209 14.295c0 0.626-1.674 1.5-4.4 1.5s-4.4-0.874-4.4-1.5c0-0.626 1.674-1.5 4.4-1.5s4.4 0.874 4.4 1.5z"></path>
<path d="M21.049 14.3c0 0.815 1.729 0.937 2.759 0.937s2.759-0.122 2.759-0.937c0-0.815-1.729-0.937-2.759-0.937s-2.759 0.122-2.759 0.937zM23.809 14.424c-0.63 0-1.128-0.056-1.474-0.124 0.346-0.068 0.844-0.124 1.474-0.124s1.128 0.056 1.474 0.124c-0.346 0.068-0.844 0.124-1.474 0.124z"></path>
</symbol>
<symbol id="icon-salad-icon" viewBox="0 0 32 32">
<path d="M30.576 9.251c-1.468-0.916-2.899-1.062-4.159-0.428-0.328-0.325-0.997-0.859-1.906-0.925-0.811-0.059-1.611 0.263-2.38 0.957-0.076-0.676-0.388-1.304-0.882-1.771-0.586-0.545-1.359-0.844-2.16-0.835-1.462 0-2.727 1.101-3.032 2.521l-3.567-2.296c-0.077-0.050-0.164-0.083-0.255-0.098s-0.183-0.011-0.273 0.012c-0.090 0.023-0.175 0.065-0.249 0.122s-0.135 0.129-0.179 0.211c-0.044 0.080-0.085 0.162-0.124 0.245-1.148-0.423-2.587-0.123-3.441 0.766-0.358 0.367-0.615 0.821-0.745 1.317s-0.131 1.017-0 1.514h-0.216c-0.554-2.003-2.584-3.057-2.67-3.101-0.082-0.042-0.177-0.053-0.267-0.030s-0.168 0.077-0.221 0.152c-0.053 0.076-0.076 0.168-0.066 0.26s0.053 0.177 0.121 0.24c0.032 0.052 0.277 0.528-0.279 2.155-1.391-0.777-2.851-1.027-3.144-1.071-0.035-0.007-0.070-0.010-0.105-0.010-0.096 0.002-0.189 0.040-0.258 0.107s-0.111 0.157-0.117 0.254c-0.006 0.096 0.025 0.191 0.087 0.266s0.149 0.123 0.244 0.136c0.002 0 0.024 0.003 0.061 0.009 0.023 0.032 0.132 0.182 0.139 0.192 0.21 0.297 0.504 0.953 0.708 2.392 0.156 1.1 0.786 2.030 1.474 2.629-0.503 0.11-0.867 0.413-0.916 0.802-0.025 0.2-0.038 0.402-0.038 0.604 0 2.191 1.458 4.235 4.106 5.755 1.261 0.724 2.724 1.288 4.313 1.677v1.39c0 0.101 0.040 0.199 0.112 0.27s0.169 0.112 0.27 0.112h9.887c0.101 0 0.199-0.040 0.27-0.112s0.112-0.169 0.112-0.27v-1.39c1.59-0.389 3.052-0.953 4.313-1.677 2.648-1.52 4.106-3.564 4.106-5.755-0-0.202-0.013-0.404-0.038-0.604-0.015-0.112-0.056-0.219-0.119-0.313 1.236-0.453 2.128-1.499 2.602-2.484 0.327-0.673 0.393-1.443 0.187-2.162s-0.672-1.336-1.306-1.733zM19.089 7.013c1.166 0 2.077 0.75 2.263 1.801-0.218-0.004-0.462 0.001-0.722 0.021-0.149-0.342-0.412-0.622-0.743-0.792s-0.712-0.221-1.077-0.143c-0.365 0.078-0.691 0.28-0.924 0.571s-0.358 0.654-0.354 1.027c-0 0.076 0.004 0.152 0.013 0.228l-0.783-0.504c0.104-1.217 1.128-2.21 2.328-2.21zM19.806 8.95c-0.533 0.103-1.044 0.298-1.509 0.577 0-0.009-0.001-0.018-0.001-0.028-0.005-0.178 0.047-0.352 0.146-0.499s0.244-0.259 0.411-0.319c0.167-0.061 0.349-0.067 0.52-0.019s0.322 0.149 0.433 0.288zM12.162 7.172l5.122 3.297c-0.139 0.195-0.257 0.404-0.353 0.624l-3.423-2.205c-0.081-0.052-0.172-0.085-0.268-0.095s-0.192 0.002-0.282 0.036c-0.091 0.034-0.172 0.089-0.238 0.16s-0.114 0.157-0.142 0.25c-0.228 0.781-0.022 1.781 0.564 2.742 0.549 0.899 1.402 1.716 2.429 2.333-0.203 0.244-0.396 0.479-0.484 0.784h-0.17c-1.353-0.979-2.38-2.33-2.898-3.821-0.513-1.479-0.462-2.932 0.142-4.104zM16.127 13.252c0.037 0.024 0.077 0.042 0.119 0.056-0.063 0.134-0.135 0.263-0.213 0.389-1.981-1.16-2.94-2.916-2.763-4.053l3.416 2.201c-0.010 0.046-0.020 0.093-0.029 0.14-0.023 0.123-0.048 0.24-0.075 0.35-0.11-0.041-0.231-0.042-0.343-0.004s-0.206 0.113-0.269 0.213c-0.072 0.115-0.096 0.254-0.067 0.387s0.11 0.248 0.224 0.322v-0zM11.633 12.339c0.502 1.046 1.206 1.983 2.070 2.758h-2.070v-2.758zM8.521 8.261c0.638-0.664 1.75-0.895 2.614-0.582-0.057 0.19-0.104 0.383-0.139 0.577-0.21-0.070-0.429-0.106-0.651-0.105-0.506 0.003-0.991 0.207-1.347 0.566s-0.556 0.846-0.554 1.352c0.001 0.166 0.023 0.332 0.066 0.492h-0.484c-0.146-0.391-0.177-0.815-0.089-1.223s0.291-0.782 0.584-1.078zM11.033 10.562h-1.716c-0.070-0.155-0.107-0.322-0.109-0.492-0.002-0.304 0.117-0.595 0.33-0.812s0.503-0.339 0.807-0.342c0.196-0.002 0.389 0.043 0.564 0.132-0.019 0.508 0.023 1.016 0.125 1.514v-0zM7.137 11.327h3.731v3.769h-4.569c0.040-0.319 0.050-0.642 0.031-0.963 0.595-0.958 0.865-1.898 0.806-2.806v-0zM4.748 8.651c0.561 0.444 1.27 1.17 1.53 2.14 0.182 0.681 0.118 1.401-0.188 2.148-0.134-0.377-0.321-0.733-0.554-1.058-0.345-0.473-0.766-0.886-1.246-1.223 0.286-0.8 0.44-1.473 0.459-2.007zM1.997 12.405c-0.135-0.948-0.325-1.698-0.569-2.239 1.053 0.303 2.61 0.935 3.485 2.16 0.557 0.78 0.762 1.711 0.614 2.771h-0.264c-0.466-2.56-1.916-3.285-1.981-3.316-0.045-0.022-0.095-0.035-0.145-0.038s-0.101 0.004-0.148 0.021c-0.048 0.017-0.091 0.042-0.129 0.076s-0.068 0.074-0.090 0.12c-0.022 0.045-0.034 0.095-0.037 0.145s0.005 0.101 0.021 0.148 0.043 0.091 0.077 0.129c0.034 0.037 0.075 0.068 0.12 0.089 0.012 0.006 1.116 0.559 1.534 2.627h-0.312c-0.633-0.071-1.959-1.161-2.177-2.692l-0 0zM20.066 24.987h-9.122v-0.836c3.011 0.599 6.111 0.599 9.122 0v0.836zM28.461 16.988h-19.152c-0.101 0-0.199 0.040-0.27 0.112s-0.112 0.169-0.112 0.27c0 0.101 0.040 0.199 0.112 0.27s0.169 0.112 0.27 0.112h18.998c-0.436 1.454-1.655 2.803-3.542 3.886-2.467 1.416-5.755 2.196-9.258 2.196s-6.792-0.78-9.258-2.196c-1.887-1.083-3.107-2.433-3.542-3.886h3.927c0.101 0 0.199-0.040 0.27-0.112s0.112-0.169 0.112-0.27c0-0.101-0.040-0.199-0.112-0.27s-0.169-0.112-0.27-0.112h-4.082c-0.035-0.313-0.033-0.629 0.006-0.942 0.031-0.055 0.239-0.185 0.58-0.185h24.738c0.341 0 0.549 0.129 0.58 0.185 0.021 0.166 0.031 0.334 0.031 0.501-0 0.147-0.009 0.294-0.025 0.441zM17.201 15.097c0.607-0.231 1.29-0.443 2.013-0.637 0.013 0.013 0.026 0.025 0.039 0.037 0.277 0.23 0.577 0.431 0.894 0.6h-2.946zM31.006 12.815c-0.518 1.078-1.615 2.242-3.139 2.282h-5.808c-0.666-0.213-1.302-0.508-1.896-0.877 1.238-0.294 2.543-0.54 3.752-0.738 0.017 0.022 0.035 0.043 0.055 0.064 0.481 0.502 1.439 1.328 2.529 1.328 0.032 0 0.064-0.001 0.097-0.002 0.051-0.002 0.1-0.013 0.146-0.034s0.087-0.051 0.122-0.088 0.061-0.081 0.078-0.128c0.017-0.048 0.025-0.098 0.023-0.149s-0.015-0.1-0.036-0.146-0.052-0.087-0.090-0.121c-0.037-0.034-0.081-0.060-0.129-0.077s-0.098-0.024-0.149-0.021c-0.646 0.028-1.287-0.409-1.706-0.773 2.191-0.331 3.873-0.492 3.913-0.496 0.101-0.009 0.194-0.059 0.259-0.137s0.096-0.179 0.086-0.28c-0.009-0.101-0.059-0.194-0.137-0.259s-0.179-0.096-0.28-0.086c-0.165 0.015-1.852 0.177-4.024 0.506 0.288-0.523 0.859-1.254 1.845-1.417 0.1-0.017 0.188-0.073 0.247-0.155s0.082-0.184 0.066-0.284-0.072-0.189-0.154-0.248c-0.082-0.059-0.184-0.083-0.284-0.067-1.612 0.266-2.35 1.641-2.593 2.22-0.013 0.031-0.024 0.062-0.033 0.094-1.263 0.208-2.631 0.467-3.931 0.783 0.214-0.61 0.684-1.536 1.622-1.854 0.048-0.016 0.092-0.041 0.131-0.074s0.070-0.073 0.092-0.118c0.023-0.045 0.036-0.094 0.039-0.145s-0.003-0.101-0.019-0.149c-0.016-0.048-0.042-0.092-0.075-0.13s-0.074-0.069-0.119-0.091c-0.045-0.022-0.095-0.035-0.145-0.038s-0.101 0.004-0.149 0.021c-1.484 0.503-2.045 2.066-2.218 2.714-0.007 0.028-0.013 0.056-0.018 0.085-0.992 0.269-1.917 0.573-2.69 0.915 0.372-0.458 0.86-1.153 1.12-2.517 0.249-1.31 1.105-2.127 2.544-2.428 0.735-0.141 1.488-0.159 2.228-0.054 0.060 0.010 0.121 0.007 0.178-0.011s0.11-0.049 0.154-0.091c0.65-0.631 1.301-0.928 1.936-0.885 0.943 0.065 1.58 0.869 1.585 0.877 0.057 0.075 0.14 0.126 0.233 0.143s0.188-0 0.269-0.049c1.078-0.654 2.301-0.563 3.635 0.27 0.474 0.297 0.822 0.759 0.976 1.297s0.104 1.114-0.141 1.617l-0 0z"></path>
<path d="M15.249 11.196c-0.057-0.037-0.121-0.062-0.188-0.074s-0.135-0.011-0.202 0.004c-0.066 0.015-0.129 0.042-0.184 0.082s-0.103 0.089-0.139 0.146c-0.072 0.115-0.096 0.254-0.067 0.387s0.11 0.248 0.223 0.322c0.082 0.053 0.179 0.082 0.277 0.082 0.038 0 0.075-0.004 0.112-0.012 0.066-0.014 0.129-0.042 0.185-0.081s0.103-0.089 0.139-0.147c0.072-0.115 0.096-0.254 0.067-0.387s-0.11-0.248-0.223-0.322z"></path>
<path d="M8.265 20.935c-0.046 0.090-0.054 0.195-0.022 0.292s0.1 0.176 0.191 0.222c1.421 0.718 2.985 1.109 4.577 1.143h0.010c0.101 0.001 0.199-0.038 0.272-0.109s0.114-0.168 0.115-0.269c0.001-0.101-0.038-0.199-0.109-0.272s-0.168-0.114-0.269-0.115c-1.478-0.031-2.931-0.394-4.251-1.061-0.045-0.023-0.094-0.036-0.144-0.040s-0.1 0.002-0.148 0.018-0.092 0.041-0.13 0.073c-0.038 0.033-0.069 0.073-0.092 0.118z"></path>
<path d="M7.427 19.944c-0.123-0.088-0.247-0.181-0.367-0.275-0.080-0.063-0.181-0.091-0.282-0.079s-0.192 0.064-0.255 0.144c-0.063 0.080-0.091 0.181-0.079 0.282s0.064 0.192 0.144 0.255c0.129 0.101 0.261 0.2 0.393 0.294 0.041 0.030 0.087 0.051 0.136 0.063s0.1 0.014 0.15 0.006 0.098-0.026 0.141-0.052c0.043-0.027 0.080-0.061 0.11-0.102s0.050-0.088 0.062-0.137 0.013-0.1 0.004-0.15c-0.008-0.050-0.027-0.097-0.054-0.14s-0.062-0.080-0.103-0.109h0z"></path>
</symbol>
<symbol id="icon-sets-icon" viewBox="0 0 32 32">
<path fill="none" stroke-linejoin="miter" stroke-linecap="butt" stroke-miterlimit="4" stroke-width="1.1034" d="M17.561 23.371c0 4.352-3.528 7.879-7.879 7.879s-7.879-3.528-7.879-7.879c0-4.352 3.528-7.879 7.879-7.879s7.879 3.528 7.879 7.879z"></path>
<path d="M11.788 23.371c0 1.163-0.943 2.106-2.106 2.106s-2.106-0.943-2.106-2.106c0-1.163 0.943-2.106 2.106-2.106s2.106 0.943 2.106 2.106z"></path>
<path fill="none" stroke-linejoin="miter" stroke-linecap="butt" stroke-miterlimit="4" stroke-width="1.1034" d="M30.197 8.629c0 4.351-3.528 7.879-7.879 7.879s-7.879-3.528-7.879-7.879c0-4.351 3.528-7.879 7.879-7.879s7.879 3.528 7.879 7.879z"></path>
<path d="M24.424 8.629c0 1.163-0.943 2.106-2.106 2.106s-2.106-0.943-2.106-2.106c0-1.163 0.943-2.106 2.106-2.106s2.106 0.943 2.106 2.106z"></path>
<path fill="none" stroke-linejoin="miter" stroke-linecap="butt" stroke-miterlimit="4" stroke-width="1.1034" d="M11.243 8.629c0 2.025-1.642 3.667-3.667 3.667s-3.667-1.642-3.667-3.667c0-2.025 1.642-3.667 3.667-3.667s3.667 1.642 3.667 3.667z"></path>
<path d="M8.629 8.629c0 0.582-0.472 1.053-1.053 1.053s-1.053-0.472-1.053-1.053c0-0.582 0.471-1.053 1.053-1.053s1.053 0.472 1.053 1.053z"></path>
<path fill="none" stroke-linejoin="miter" stroke-linecap="butt" stroke-miterlimit="4" stroke-width="1.1034" d="M28.091 25.477c0 2.025-1.642 3.667-3.667 3.667s-3.667-1.642-3.667-3.667c0-2.025 1.642-3.667 3.667-3.667s3.667 1.642 3.667 3.667z"></path>
<path d="M25.477 25.477c0 0.582-0.471 1.053-1.053 1.053s-1.053-0.471-1.053-1.053c0-0.582 0.471-1.053 1.053-1.053s1.053 0.471 1.053 1.053z"></path>
</symbol>
<symbol id="icon-soup-icon" viewBox="0 0 32 32">
<path d="M31.287 0.774c-0.645-0.397-1.488-0.149-1.884 0.496l-6.793 11.9h-22.114c-0.297 0-0.496 0.198-0.496 0.496v1.438c0 5.157 2.678 9.867 7.090 12.446-0.347 0.297-0.545 0.744-0.545 1.239v2.132c0 0.297 0.198 0.496 0.496 0.496h14.825c0.298 0 0.496-0.198 0.496-0.496v-2.132c0-0.496-0.198-0.942-0.545-1.239 4.413-2.578 7.090-7.239 7.090-12.446v-1.438c0-0.297-0.198-0.496-0.496-0.496h-2.628l6.049-10.512c0.347-0.645 0.149-1.488-0.545-1.884zM27.866 14.162v0.942c0 5.206-2.925 9.818-7.586 12.098-0.198 0.099-0.297 0.347-0.248 0.545 0.050 0.248 0.248 0.397 0.496 0.397h0.198c0.347 0 0.595 0.297 0.595 0.595v1.636h-13.784v-1.636c0-0.347 0.298-0.595 0.595-0.595h0.198c0.248 0 0.446-0.149 0.496-0.397s-0.050-0.446-0.248-0.545c-4.661-2.281-7.586-6.892-7.586-12.098v-0.942h26.874zM30.94 2.163l-6.347 11.008h-0.843l6.545-11.355c0.099-0.198 0.347-0.248 0.496-0.149 0.198 0.099 0.248 0.298 0.149 0.496z"></path>
</symbol>
<symbol id="icon-sushi-icon" viewBox="0 0 32 32">
<path d="M31.158 15.257l-2.486-2.893c-0.383-0.446-0.799-0.873-1.235-1.272-0.193-0.175-0.491-0.162-0.666 0.031s-0.162 0.491 0.031 0.666c0.361 0.329 0.705 0.68 1.027 1.045 0.087 2.271-0.366 4.541-1.313 6.605l-3.327-1.5c-0.094-0.042-0.188-0.083-0.282-0.124 0.576-2.972 0.26-6.066-0.896-8.855 1.146 0.39 3.889 2.23 4.898 2.913 0.081 0.055 0.173 0.081 0.264 0.081 0.151 0 0.3-0.073 0.391-0.207 0.146-0.216 0.090-0.509-0.126-0.655-2.036-1.378-6.045-3.52-8.489-3.745-0.4-0.533-1.036-0.878-1.752-0.878h-3.559c-0.792 0-1.487 0.423-1.872 1.055-3.275 0.599-6.264 2.311-8.436 4.839l-2.486 2.893c-0.955 1.112-1.114 2.716-0.395 3.994 0.429 0.763 1.124 1.334 1.956 1.607 0.072 0.024 0.145 0.044 0.218 0.063-0.112 1.031 0.183 2.061 0.84 2.885 0.755 0.948 1.884 1.491 3.095 1.491h6.098c0.296 0.149 0.629 0.234 0.982 0.234h3.559c0.353 0 0.687-0.085 0.983-0.234h7.203c1.212 0 2.34-0.544 3.095-1.491 0.653-0.82 0.948-1.843 0.841-2.869 0.094-0.022 0.187-0.049 0.28-0.079 0.832-0.273 1.527-0.844 1.956-1.607 0.719-1.277 0.56-2.882-0.395-3.994zM20.823 8.615c1.314 2.743 1.73 5.856 1.188 8.847-0.854-0.31-1.733-0.55-2.627-0.719v-8.085c0-0.106-0.008-0.21-0.023-0.312 0.492 0.064 0.98 0.153 1.462 0.27zM11.448 8.658v4.552c-0.909-1.319-2.023-2.495-3.289-3.473 1.037-0.533 2.143-0.933 3.292-1.187-0.002 0.036-0.003 0.072-0.003 0.108zM1.269 18.788c-0.525-0.933-0.409-2.105 0.289-2.916l1.34-1.559c0.528 0.288 1.044 0.612 1.536 0.966 0.083 0.060 1.411 1.247 1.507 1.247 0.147 0 0.366-0.397 0.459-0.525 0.152-0.211 0.402-0.007 0.191-0.16-0.47-0.338-2.564-1.978-3.064-2.259l0.518-0.603c0.929-1.081 2.017-2.001 3.217-2.737 1.721 1.253 3.163 2.891 4.187 4.761v2.004c-0.903 0.238-1.788 0.551-2.635 0.933l-0.284 0.128c-0.572-0.8-1.223-1.548-1.938-2.227-0.189-0.179-0.488-0.171-0.667 0.018s-0.171 0.488 0.018 0.667c0.626 0.594 1.199 1.245 1.708 1.938l-3.106 1.4c-1.214 0.547-2.621 0.085-3.274-1.075zM4.199 23.218c-0.498-0.625-0.723-1.405-0.641-2.187 0.47-0.008 0.937-0.111 1.374-0.308l4.269-1.924c0.724-0.327 1.478-0.599 2.247-0.814v4.041h-0.472c-0.261 0-0.472 0.211-0.472 0.472s0.211 0.472 0.472 0.472h0.472v0.373c0 0.365 0.090 0.709 0.249 1.011h-5.14c-0.923 0-1.782-0.414-2.358-1.136zM27.738 23.218c-0.575 0.722-1.435 1.136-2.358 1.136h-6.245c0.142-0.271 0.229-0.574 0.246-0.897 0.007 0 0.014 0.001 0.021 0.001h0.524c0.26 0 0.472-0.211 0.472-0.472s-0.211-0.472-0.472-0.472h-0.524c-0.006 0-0.012 0.001-0.018 0.001v-2.844c0-0.26-0.211-0.472-0.472-0.472s-0.472 0.211-0.472 0.472v3.671c0 0.687-0.559 1.245-1.245 1.245h-3.559c-0.687 0-1.245-0.558-1.245-1.245v-14.685c0-0.687 0.559-1.245 1.245-1.245h3.559c0.687 0 1.245 0.559 1.245 1.245v10.898c0 0.261 0.211 0.472 0.472 0.472s0.472-0.211 0.472-0.472v-1.852c1.177 0.236 2.323 0.603 3.416 1.096l4.269 1.924c0.418 0.188 0.862 0.29 1.311 0.306 0.082 0.782-0.143 1.563-0.641 2.188zM30.731 18.788c-0.653 1.16-2.060 1.623-3.274 1.076l-0.083-0.037c0.85-1.854 1.325-3.864 1.397-5.899l1.671 1.944c0.698 0.812 0.813 1.984 0.289 2.916z"></path>
<path d="M21.325 19.236h-0.455c-0.26 0-0.472 0.211-0.472 0.472s0.211 0.472 0.472 0.472h0.455c0.26 0 0.472-0.211 0.472-0.472s-0.211-0.472-0.472-0.472z"></path>
<path d="M23.877 21.23h-0.769c-0.261 0-0.472 0.211-0.472 0.472s0.211 0.472 0.472 0.472h0.769c0.26 0 0.472-0.211 0.472-0.472s-0.211-0.472-0.472-0.472z"></path>
<path d="M11.063 20.561c0-0.261-0.211-0.472-0.472-0.472h-0.839c-0.261 0-0.472 0.211-0.472 0.472s0.211 0.472 0.472 0.472h0.839c0.261 0 0.472-0.211 0.472-0.472z"></path>
<path d="M7.689 22.025h-1.503c-0.261 0-0.472 0.211-0.472 0.472s0.211 0.472 0.472 0.472h1.503c0.261 0 0.472-0.211 0.472-0.472s-0.211-0.472-0.472-0.472z"></path>
</symbol>
<symbol id="icon-wok-icon" viewBox="0 0 32 32">
<path d="M14.39 3.362c0.913 0 1.66-0.747 1.66-1.66s-0.747-1.66-1.66-1.66c-0.249 0-0.415 0.166-0.415 0.415s0.166 0.415 0.415 0.415c0.457 0 0.83 0.374 0.83 0.83s-0.374 0.83-0.83 0.83c-0.913 0-1.66 0.747-1.66 1.66-0.041 0.913 0.706 1.66 1.66 1.66 0.249 0 0.415-0.166 0.415-0.415s-0.166-0.415-0.415-0.415c-0.457 0-0.83-0.374-0.83-0.83s0.374-0.83 0.83-0.83z"></path>
<path d="M17.669 3.32c0.913 0 1.66-0.747 1.66-1.66s-0.747-1.66-1.66-1.66c-0.249 0-0.415 0.166-0.415 0.415s0.166 0.415 0.415 0.415c0.457 0 0.83 0.374 0.83 0.83s-0.374 0.83-0.83 0.83c-0.913 0-1.66 0.747-1.66 1.66s0.747 1.66 1.66 1.66c0.249 0 0.415-0.166 0.415-0.415s-0.166-0.415-0.415-0.415c-0.457 0-0.83-0.374-0.83-0.83s0.374-0.83 0.83-0.83z"></path>
<path d="M28.751 5.396c-0.208-0.083-0.457 0-0.54 0.249l-2.449 6.101h-0.498l-2.698-4.109c-0.083-0.125-0.207-0.208-0.332-0.208h-12.202c-0.124 0-0.249 0.042-0.332 0.166l-3.071 4.109h-0.374l-2.449-6.101c-0.083-0.208-0.332-0.332-0.54-0.249s-0.332 0.332-0.249 0.54l2.532 6.309 1.411 18.968c0 0.083 0 0.124 0 0.166v0.291c0 0.208 0.208 0.374 0.415 0.374h17.266c0.208 0 0.415-0.166 0.415-0.374l1.37-19.383 2.532-6.309c0.125-0.249 0-0.457-0.207-0.54zM10.24 8.259h11.787l2.241 3.486h-16.602l2.573-3.486zM25.306 12.576l-9.297 9.629-9.339-9.629h18.636zM6.463 13.572l8.923 9.256-7.678 7.471-1.245-16.726zM7.999 31.17l7.969-7.761 7.72 7.761h-15.689zM24.31 30.672l-7.72-7.886 8.965-9.297-1.245 17.183z"></path>
</symbol>
</defs>
</svg>
