<svg aria-hidden="true" style="position: absolute; width: 0; height: 0; overflow: hidden;" version="1.1" xmlns="http://www.w3.org/2000/svg" xmlns:xlink="http://www.w3.org/1999/xlink">
<defs>
<symbol id="icon-cart-ms" viewBox="0 0 32 32">
<path d="M20.975 26.117c0.051 0.009 0.102 0.013 0.153 0.013 0.442 0 0.832-0.319 0.907-0.77l0.921-5.525c0.084-0.502-0.255-0.976-0.757-1.060s-0.976 0.255-1.060 0.757l-0.921 5.525c-0.084 0.502 0.255 0.976 0.757 1.060z"></path>
<path d="M10.027 25.36c0.075 0.45 0.465 0.77 0.907 0.77 0.050 0 0.101-0.004 0.152-0.013 0.502-0.084 0.841-0.558 0.757-1.060l-0.921-5.525c-0.084-0.502-0.558-0.84-1.060-0.757s-0.841 0.558-0.757 1.060l0.921 5.525z"></path>
<path d="M30.795 11.396h-3.241l-7.090-8.863c-0.318-0.397-0.897-0.462-1.294-0.144s-0.462 0.897-0.144 1.294l6.17 7.712h-18.391l6.17-7.712c0.318-0.397 0.253-0.977-0.144-1.294s-0.977-0.253-1.294 0.144l-7.090 8.863h-3.241c-0.509 0-0.921 0.412-0.921 0.921v3.683c0 0.509 0.412 0.921 0.921 0.921h1.147l3.493 12.224c0.113 0.395 0.474 0.668 0.885 0.668h18.539c0.411 0 0.772-0.273 0.885-0.668l3.492-12.224h1.147c0.509 0 0.921-0.412 0.921-0.921v-3.683c0-0.509-0.412-0.921-0.921-0.921zM24.575 27.971h-17.15l-3.157-11.050h23.465l-3.157 11.050zM29.874 15.079c-3.154 0-24.759 0-27.748 0v-1.842h27.748v1.842z"></path>
<path d="M16 26.129c0.509 0 0.921-0.412 0.921-0.921v-5.525c0-0.509-0.412-0.921-0.921-0.921s-0.921 0.412-0.921 0.921v5.525c0 0.509 0.412 0.921 0.921 0.921z"></path>
</symbol>
<symbol id="icon-comments-ms" viewBox="0 0 32 32">
<path d="M12.694 10.357l-0.201 0.083c-0.338-0.591-0.974-0.99-1.702-0.99h-3.11c-1.081 0-1.96 0.879-1.96 1.96v8.845c0 1.081 0.879 1.96 1.96 1.96h3.11c0.616 0 1.166-0.286 1.525-0.731 1.082 0.479 2.264 0.731 3.448 0.731h6.571c1.102 0 1.999-0.897 1.999-1.999 0-0.345-0.088-0.669-0.242-0.953 0.687-0.317 1.165-1.011 1.165-1.816 0-0.331-0.081-0.643-0.224-0.918 0.73-0.298 1.246-1.015 1.246-1.851s-0.516-1.553-1.246-1.851c0.143-0.275 0.224-0.587 0.224-0.918 0-1.102-0.897-1.999-1.999-1.999h-3.274c-0.31 0-0.561-0.252-0.561-0.561v-1.807c0-1.802-1.466-3.268-3.268-3.268-0.79 0-1.433 0.643-1.433 1.433v1.619c-0 1.333-0.796 2.523-2.029 3.030zM10.791 20.987h-3.11c-0.403 0-0.731-0.328-0.731-0.731v-8.845c0-0.403 0.328-0.731 0.731-0.731h3.11c0.403 0 0.731 0.328 0.731 0.731v8.845c0 0.403-0.328 0.731-0.731 0.731zM15.951 7.327v-1.619c0-0.113 0.092-0.204 0.204-0.204 1.124 0 2.039 0.915 2.039 2.039v1.807c0 0.987 0.803 1.79 1.79 1.79h3.274c0.425 0 0.77 0.345 0.77 0.77s-0.345 0.77-0.77 0.77h-3.835c-0.339 0-0.614 0.275-0.614 0.614s0.275 0.614 0.614 0.614h4.856c0.425 0 0.77 0.345 0.77 0.77s-0.345 0.77-0.77 0.77h-4.856c-0.339 0-0.614 0.275-0.614 0.614s0.275 0.614 0.614 0.614h3.835c0.425 0 0.77 0.345 0.77 0.77s-0.345 0.77-0.77 0.77h-3.835c-0.339 0-0.614 0.275-0.614 0.614s0.275 0.614 0.614 0.614h2.912c0.424 0 0.77 0.345 0.77 0.77s-0.345 0.77-0.77 0.77h-6.572c-1.037 0-2.072-0.226-3.016-0.656 0.001-0.025 0.002-0.050 0.002-0.076v-8.593l0.411-0.169c1.695-0.698 2.79-2.334 2.79-4.166z"></path>
<path d="M26.199 1.5h-7.434c-0.339 0-0.614 0.275-0.614 0.614s0.275 0.614 0.614 0.614h7.434c2.372 0 4.301 1.929 4.301 4.301v14.254c0 2.372-1.929 4.301-4.301 4.301h-8.071c-0.22 0-0.422 0.117-0.532 0.307l-1.596 2.765-1.596-2.765c-0.11-0.19-0.313-0.307-0.532-0.307h-8.071c-2.372 0-4.301-1.929-4.301-4.301v-14.254c0-2.372 1.929-4.301 4.301-4.301h7.434c0.339 0 0.614-0.275 0.614-0.614s-0.275-0.614-0.614-0.614h-7.434c-3.049 0-5.53 2.481-5.53 5.53v14.254c0 3.049 2.481 5.53 5.53 5.53h7.716l1.951 3.379c0.11 0.19 0.313 0.307 0.532 0.307s0.422-0.117 0.532-0.307l1.951-3.379h7.716c3.049 0 5.53-2.481 5.53-5.53v-14.254c0-3.049-2.481-5.53-5.53-5.53z"></path>
<path d="M16 2.729c0.162 0 0.32-0.066 0.434-0.18s0.18-0.273 0.18-0.434-0.066-0.32-0.18-0.434c-0.114-0.114-0.273-0.18-0.434-0.18s-0.32 0.066-0.434 0.18c-0.114 0.114-0.18 0.273-0.18 0.434s0.066 0.32 0.18 0.434c0.114 0.114 0.273 0.18 0.434 0.18z"></path>
</symbol>
<symbol id="icon-menu-ms" viewBox="0 0 32 32">
<path d="M30.396 9.336c-1.45-0.905-2.863-1.048-4.108-0.423-0.324-0.321-0.986-0.848-1.882-0.914-0.8-0.058-1.591 0.26-2.351 0.945-0.075-0.668-0.384-1.287-0.872-1.749-0.578-0.538-1.342-0.834-2.133-0.825-1.444 0-2.693 1.088-2.995 2.49l-3.523-2.268c-0.076-0.049-0.162-0.082-0.252-0.097s-0.181-0.011-0.269 0.012c-0.089 0.023-0.173 0.065-0.246 0.121s-0.133 0.128-0.177 0.209c-0.043 0.079-0.084 0.16-0.123 0.242-1.134-0.418-2.555-0.122-3.398 0.756-0.354 0.363-0.607 0.811-0.736 1.301s-0.129 1.005-0 1.495h-0.213c-0.547-1.979-2.552-3.019-2.637-3.063-0.081-0.042-0.175-0.053-0.263-0.030s-0.166 0.076-0.218 0.151c-0.053 0.075-0.075 0.166-0.065 0.257s0.053 0.175 0.12 0.236c0.032 0.051 0.273 0.522-0.276 2.129-1.374-0.767-2.816-1.014-3.105-1.058-0.034-0.007-0.069-0.010-0.104-0.010-0.095 0.002-0.186 0.039-0.255 0.106s-0.11 0.156-0.115 0.251c-0.005 0.095 0.025 0.189 0.086 0.262s0.147 0.121 0.242 0.134c0.002 0 0.023 0.003 0.061 0.009 0.023 0.032 0.13 0.18 0.137 0.189 0.208 0.293 0.497 0.941 0.699 2.363 0.155 1.086 0.776 2.005 1.456 2.597-0.497 0.109-0.856 0.408-0.904 0.792-0.025 0.198-0.038 0.397-0.038 0.596 0 2.164 1.441 4.183 4.055 5.684 1.245 0.715 2.69 1.272 4.26 1.656v1.373c0 0.101 0.040 0.196 0.111 0.267s0.167 0.11 0.267 0.11h9.765c0.101 0 0.196-0.040 0.267-0.11s0.11-0.167 0.11-0.267v-1.373c1.57-0.384 3.014-0.941 4.26-1.656 2.615-1.501 4.055-3.519 4.055-5.684-0-0.199-0.012-0.399-0.038-0.596-0.015-0.111-0.055-0.217-0.118-0.31 1.22-0.448 2.102-1.48 2.57-2.453 0.323-0.665 0.388-1.425 0.184-2.135s-0.663-1.32-1.29-1.712zM19.051 7.126c1.152 0 2.051 0.741 2.235 1.779-0.215-0.004-0.457 0.001-0.713 0.021-0.148-0.337-0.406-0.614-0.734-0.782s-0.704-0.218-1.063-0.141-0.682 0.276-0.912 0.564c-0.23 0.288-0.354 0.646-0.349 1.014-0 0.075 0.004 0.151 0.012 0.226l-0.774-0.498c0.103-1.202 1.114-2.182 2.299-2.182zM19.759 9.038c-0.526 0.102-1.031 0.295-1.49 0.57 0-0.009-0-0.018-0-0.028-0.005-0.175 0.046-0.348 0.145-0.493s0.241-0.255 0.405-0.315c0.165-0.060 0.345-0.067 0.513-0.018s0.319 0.148 0.428 0.284zM12.21 7.282l5.058 3.256c-0.136 0.193-0.254 0.399-0.349 0.616l-3.38-2.177c-0.080-0.052-0.171-0.084-0.265-0.095s-0.189 0.002-0.279 0.035c-0.090 0.034-0.171 0.088-0.236 0.159s-0.113 0.155-0.14 0.246c-0.225 0.772-0.022 1.758 0.557 2.708 0.542 0.888 1.384 1.695 2.399 2.304-0.201 0.241-0.39 0.473-0.477 0.774h-0.168c-1.336-0.966-2.351-2.301-2.862-3.773-0.507-1.461-0.457-2.896 0.14-4.053zM16.126 13.287c0.037 0.023 0.076 0.042 0.118 0.055-0.063 0.132-0.133 0.26-0.21 0.384-1.957-1.146-2.903-2.88-2.729-4.003l3.374 2.174c-0.010 0.045-0.020 0.092-0.029 0.139-0.023 0.122-0.048 0.236-0.074 0.345-0.109-0.040-0.229-0.042-0.339-0.004s-0.204 0.112-0.266 0.21c-0.071 0.114-0.095 0.251-0.065 0.382s0.108 0.245 0.221 0.319v-0zM11.688 12.385c0.497 1.033 1.191 1.958 2.044 2.724h-2.044v-2.724zM8.614 8.358c0.63-0.656 1.728-0.884 2.582-0.575-0.057 0.187-0.103 0.378-0.138 0.57-0.207-0.069-0.425-0.104-0.642-0.104-0.5 0.003-0.978 0.204-1.331 0.559s-0.549 0.835-0.547 1.335c0 0.164 0.022 0.328 0.065 0.486h-0.478c-0.144-0.386-0.175-0.805-0.088-1.208s0.287-0.772 0.577-1.065zM11.096 10.63h-1.695c-0.069-0.153-0.106-0.319-0.108-0.486-0.002-0.3 0.115-0.588 0.326-0.802s0.497-0.335 0.796-0.337c0.193-0.002 0.385 0.043 0.557 0.131-0.018 0.502 0.023 1.003 0.123 1.495v-0zM7.247 11.386h3.685v3.723h-4.513c0.039-0.316 0.050-0.634 0.030-0.951 0.588-0.945 0.854-1.874 0.796-2.771v-0zM4.889 8.742c0.554 0.439 1.255 1.155 1.511 2.113 0.18 0.673 0.116 1.383-0.186 2.121-0.133-0.372-0.317-0.724-0.547-1.045-0.341-0.467-0.757-0.876-1.231-1.207 0.282-0.79 0.434-1.455 0.453-1.982zM2.172 12.45c-0.133-0.936-0.321-1.677-0.561-2.211 1.040 0.299 2.578 0.923 3.442 2.133 0.551 0.77 0.753 1.69 0.606 2.737h-0.261c-0.46-2.528-1.893-3.245-1.956-3.275-0.045-0.022-0.093-0.034-0.143-0.037s-0.099 0.004-0.146 0.020c-0.047 0.016-0.090 0.042-0.127 0.075s-0.067 0.073-0.088 0.118c-0.021 0.045-0.034 0.093-0.037 0.143s0.004 0.1 0.021 0.146c0.016 0.047 0.042 0.090 0.075 0.127s0.074 0.067 0.118 0.088c0.012 0.005 1.102 0.552 1.515 2.594h-0.307c-0.626-0.070-1.935-1.146-2.15-2.659l-0 0zM20.017 24.876h-9.009v-0.826c2.974 0.591 6.035 0.591 9.009 0v0.826zM28.307 16.976h-18.915c-0.1 0-0.196 0.040-0.267 0.11s-0.111 0.167-0.111 0.267 0.040 0.196 0.111 0.267c0.071 0.071 0.167 0.111 0.267 0.111h18.762c-0.43 1.436-1.635 2.768-3.499 3.838-2.436 1.398-5.684 2.169-9.144 2.169s-6.707-0.77-9.144-2.169c-1.864-1.070-3.068-2.402-3.499-3.838h3.878c0.101 0 0.196-0.040 0.267-0.111s0.111-0.167 0.111-0.267-0.040-0.196-0.111-0.267c-0.071-0.071-0.167-0.11-0.267-0.11h-4.031c-0.034-0.309-0.032-0.622 0.007-0.93 0.030-0.055 0.236-0.183 0.573-0.183h24.431c0.337 0 0.542 0.128 0.573 0.183 0.020 0.164 0.030 0.329 0.030 0.495-0 0.145-0.009 0.291-0.025 0.435zM17.187 15.108c0.6-0.228 1.274-0.437 1.988-0.629 0.012 0.012 0.025 0.025 0.038 0.037 0.274 0.227 0.569 0.425 0.883 0.592h-2.909zM30.82 12.855c-0.512 1.064-1.595 2.215-3.1 2.253h-5.736c-0.657-0.21-1.286-0.502-1.872-0.866 1.223-0.291 2.512-0.533 3.705-0.729 0.017 0.021 0.035 0.043 0.053 0.063 0.475 0.496 1.421 1.312 2.497 1.312 0.032 0 0.064-0 0.096-0.002 0.050-0.002 0.099-0.013 0.144-0.034s0.086-0.050 0.12-0.087c0.034-0.037 0.060-0.080 0.077-0.127s0.025-0.097 0.022-0.147c-0.002-0.050-0.014-0.099-0.035-0.144s-0.051-0.086-0.088-0.119c-0.037-0.033-0.080-0.060-0.127-0.076s-0.097-0.023-0.147-0.021c-0.638 0.028-1.272-0.404-1.684-0.764 2.163-0.327 3.825-0.486 3.865-0.49 0.1-0.009 0.192-0.058 0.256-0.135s0.095-0.176 0.085-0.276-0.058-0.192-0.135-0.256c-0.077-0.064-0.176-0.095-0.276-0.085-0.163 0.015-1.829 0.175-3.974 0.5 0.285-0.517 0.848-1.238 1.822-1.4 0.098-0.017 0.186-0.072 0.244-0.153s0.081-0.183 0.065-0.281c-0.016-0.098-0.071-0.187-0.152-0.245s-0.182-0.083-0.28-0.067c-1.592 0.262-2.321 1.621-2.56 2.193-0.012 0.030-0.023 0.062-0.032 0.093-1.247 0.205-2.599 0.462-3.882 0.774 0.211-0.603 0.676-1.517 1.601-1.831 0.048-0.015 0.091-0.040 0.129-0.073s0.069-0.072 0.091-0.118c0.022-0.045 0.035-0.093 0.039-0.143s-0.003-0.1-0.019-0.147-0.042-0.091-0.074-0.128c-0.033-0.038-0.073-0.068-0.118-0.090s-0.093-0.034-0.144-0.038c-0.050-0.003-0.1 0.004-0.147 0.021-1.465 0.497-2.020 2.040-2.19 2.68-0.007 0.028-0.013 0.056-0.018 0.083-0.98 0.266-1.893 0.566-2.656 0.904 0.367-0.452 0.85-1.138 1.106-2.486 0.246-1.294 1.091-2.101 2.512-2.398 0.725-0.139 1.469-0.157 2.2-0.053 0.059 0.010 0.119 0.007 0.176-0.012s0.109-0.049 0.152-0.090c0.642-0.623 1.285-0.917 1.912-0.874 0.932 0.065 1.56 0.859 1.566 0.866 0.057 0.074 0.139 0.124 0.23 0.141s0.186-0 0.266-0.048c1.064-0.646 2.272-0.556 3.59 0.266 0.468 0.293 0.812 0.75 0.963 1.282s0.103 1.1-0.139 1.597l-0 0z"></path>
</symbol>
</defs>
</svg>
